Hellboy {2004}

In the final days of World War II, the Nazis attempt to use black 

magic to aid their dying cause. The Allies raid the camp where the 

ceremony is taking place, but not before a demon - Hellboy - has 

already been conjured. Joining the Allied forces, Hellboy eventually 

grows to adulthood, serving the cause of good rather than evil.
 
http://www.imdb.com/title/tt0167190/

~~~~FILE INFO~~~~
Complete name                    : Hellboy {2004} 

DVDRip.Xvid~Wolftatt2~.avi
Format                           : AVI
Format/Info                      : Audio Video Interleave
File size                        : 928 MiB
Duration                         : 2h 7mn
Overall bit rate                 : 1 021 Kbps
Source                           : HELLBOY_DVD_D1.Title1
Writing application              : Lavf51.12.1

Video
Format                           : xvid
Codec ID                         : xvid
Duration                         : 2h 7mn
Bit rate                         : 881 Kbps
Width                            : 596 pixels
Height                           : 314 pixels
Display aspect ratio             : 1.898
Frame rate                       : 25.000 fps
Bits/(Pixel*Frame)               : 0.188
Stream size                      : 800 MiB (86%)

Audio
Format                           : MPEG Audio
Format version                   : Version 1
Format profile                   : Layer 3
Mode                             : Joint stereo
Mode extension                   : MS Stereo
Codec ID                         : 55
Codec ID/Hint                    : MP3
Duration                         : 2h 7mn
Bit rate mode                    : Constant
Bit rate                         : 128 Kbps
Channel(s)                       : 2 channels
Sampling rate                    : 44.1 KHz
Compression mode                 : Lossy
Stream size                      : 116 MiB (13%)
Alignment                        : Aligned on interleaves
Interleave, duration             : 26 ms (0.65 video frame)
Interleave, preload duration     : 26 ms

Thanks for Downloading!

Please Seed!

~Wolftatt2~